<svg xmlns="http://www.w3.org/2000/svg" width="123.547" height="56.601" viewBox="0 0 123.547 56.601">
  <path id="Path_1210" data-name="Path 1210" d="M189.879,2.84H92.2a.485.485,0,0,1-.343-.828L104.15-10.282a3.152,3.152,0,0,0,0-4.457l-3.6-3.6a3.152,3.152,0,0,0-4.457,0L75.452,2.3a3.181,3.181,0,0,0-.447.369l-3.6,3.6a3.142,3.142,0,0,0-.921,2.268,3.142,3.142,0,0,0,.921,2.268l3.6,3.6a3.18,3.18,0,0,0,.447.369l20.641,20.64a3.152,3.152,0,0,0,4.457,0l3.6-3.6a3.152,3.152,0,0,0,0-4.457L91.856,15.063a.485.485,0,0,1,.343-.828h97.68a3.152,3.152,0,0,0,3.152-3.152V5.991A3.152,3.152,0,0,0,189.879,2.84Z" transform="translate(193.531 36.838) rotate(180)" fill="none" stroke="#fff" stroke-miterlimit="10" stroke-width="1"/>
</svg>
