<svg xmlns="http://www.w3.org/2000/svg" width="16.548" height="16.169" viewBox="0 0 16.548 16.169">
  <g id="Group_1484" data-name="Group 1484" transform="translate(-400.673 -285.241)">
    <path id="Path_469" data-name="Path 469" d="M403.393,295.3h7.743l-1.278,1.232h-6.466a1.494,1.494,0,0,0-1.488,1.488v10.311a1.494,1.494,0,0,0,1.488,1.488H413.7a1.494,1.494,0,0,0,1.488-1.488v-5.692l1.232-1.224v6.917a2.727,2.727,0,0,1-2.72,2.72H403.393a2.727,2.727,0,0,1-2.72-2.72V298.016a2.727,2.727,0,0,1,2.72-2.72" transform="translate(0 -9.638)" fill="#22d3c5"/>
    <rect id="Rectangle_276" data-name="Rectangle 276" width="10.706" height="3.262" transform="translate(406.067 294.088) rotate(-45)" fill="#22d3c5"/>
    <path id="Path_470" data-name="Path 470" d="M728.356,286.7l-1.235-1.235a.76.76,0,0,0-1.072,0l-.536.536,2.307,2.307.536-.536a.76.76,0,0,0,0-1.072" transform="translate(-311.356)" fill="#22d3c5" fill-rule="evenodd"/>
    <path id="Path_471" data-name="Path 471" d="M505.182,515.462l.273-1.384.273-1.384,1.111,1.111,1.111,1.111-1.384.273Z" transform="translate(-100.17 -218.011)" fill="#22d3c5" fill-rule="evenodd"/>
  </g>
</svg>
