<svg xmlns="http://www.w3.org/2000/svg" width="19.59" height="14.377" viewBox="0 0 19.59 14.377">
  <path id="Forma_1" data-name="Forma 1" d="M1025.367,4837.963a5.294,5.294,0,0,1-1.216-.869l-6.633-6.1a1.168,1.168,0,0,1-.365-1.232,1.127,1.127,0,0,1,1.065-.568h16.973a1.386,1.386,0,0,1,1.09.61c.211.359-.074.95-.383,1.229l-7.278,6.575A3.291,3.291,0,0,1,1025.367,4837.963Zm-7.109,5.6s-1.351-.12-1.351-1.306v-9.692c0-.416.24-.517.537-.224l2.87,2.832a1.194,1.194,0,0,1,.242,1.223l-2.063,4.855c-.163.383-.087.428.169.1l2.882-3.688a.742.742,0,0,1,1.052-.123l1.277,1.024a5.113,5.113,0,0,0,1.289.748c.936.313,2.6.672,3.65-.236l1.857-1.552a.711.711,0,0,1,1.033.117l3.05,4.028c.251.333.327.289.169-.1l-2.108-5.128a1.216,1.216,0,0,1,.249-1.228l2.9-2.874c.3-.292.536-.193.536.224v9.776a1.339,1.339,0,0,1-1.426,1.222h-16.813Z" transform="translate(-1016.907 -4829.19)"/>
</svg>
