<svg xmlns="http://www.w3.org/2000/svg" width="16.959" height="11.349" viewBox="0 0 16.959 11.349">
  <path id="Path_1205" data-name="Path 1205" d="M733.76,24.949a.729.729,0,0,1-.728-.728V14.728A.729.729,0,0,1,733.76,14h15.1a.729.729,0,0,1,.728.728v9.493a.729.729,0,0,1-.728.728Zm.151-.614-.012.012-.2.225h15.241l-.217-.228-.009-.009-3.664-4.526a.189.189,0,1,1,.293-.238l3.872,4.783V14.647l-7.1,5.324a1.41,1.41,0,0,1-1.608,0l-7.1-5.324v9.708l3.872-4.783a.189.189,0,0,1,.293.238Zm7.4-4.49a.977.977,0,0,0,.574-.176l7.054-5.291H733.679l7.055,5.292a.976.976,0,0,0,.573.176h.008Z" transform="translate(-732.832 -13.8)" fill="#fff" stroke="#fff" stroke-linecap="round" stroke-linejoin="round" stroke-width="0.4"/>
</svg>
