<svg xmlns="http://www.w3.org/2000/svg" width="9.486" height="17.513" viewBox="0 0 9.486 17.513">
  <path id="Forma_1" data-name="Forma 1" d="M879.129,4829.491l-2.275,0a3.992,3.992,0,0,0-4.208,4.31v1.987h-2.288a.358.358,0,0,0-.358.357v2.879a.357.357,0,0,0,.358.357h2.287v7.265A.358.358,0,0,0,873,4847h2.985a.358.358,0,0,0,.358-.357v-7.265h2.675a.357.357,0,0,0,.358-.357v-2.879a.358.358,0,0,0-.358-.357h-2.675V4834.1c0-.81.193-1.221,1.25-1.221h1.533a.357.357,0,0,0,.357-.357v-2.673A.357.357,0,0,0,879.129,4829.491Z" transform="translate(-870 -4829.487)"/>
</svg>
