<svg xmlns="http://www.w3.org/2000/svg" width="40" height="40" viewBox="0 0 40 40">
  <g id="Group_6019" data-name="Group 6019" transform="translate(-940 -30)">
    <g id="Group_1451" data-name="Group 1451">
      <g id="Group_1450" data-name="Group 1450" transform="translate(0 -5)">
        <path id="Path_440" data-name="Path 440" d="M274.017,319.2a1.517,1.517,0,0,0-1.517,1.517v17.836a1.517,1.517,0,0,0,3.034,0V320.716a1.517,1.517,0,0,0-1.517-1.517Zm0,0" transform="translate(999.083 -372.088) rotate(45)"/>
        <path id="Path_441" data-name="Path 441" d="M141.736,451.476a1.517,1.517,0,0,0,0,3.034h17.836a1.517,1.517,0,1,0,0-3.034Zm0,0" transform="translate(1173.542 -372.086) rotate(45)"/>
        <g id="Ellipse_41" data-name="Ellipse 41" transform="translate(940 35)" fill="none" stroke="#000" stroke-width="1">
          <circle cx="20" cy="20" r="20" stroke="none"/>
          <circle cx="20" cy="20" r="19.5" fill="none"/>
        </g>
      </g>
    </g>
  </g>
</svg>
