<svg xmlns="http://www.w3.org/2000/svg" width="27.658" height="27.658" viewBox="0 0 27.658 27.658">
  <g id="Group_1751" data-name="Group 1751" transform="translate(-140 -832)">
    <g id="Path_449" data-name="Path 449" transform="translate(140 832)" fill="#fff">
      <path d="M 13.82885837554932 26.90771865844727 C 10.33536815643311 26.90771865844727 7.050978183746338 25.54727745056152 4.580708503723145 23.0770092010498 C 2.110438346862793 20.60673904418945 0.7499983906745911 17.32234764099121 0.7499983906745911 13.82885837554932 C 0.7499983906745911 10.33536815643311 2.110438346862793 7.050978183746338 4.580708503723145 4.580708503723145 C 7.050978183746338 2.110438346862793 10.33536815643311 0.7499983906745911 13.82885837554932 0.7499983906745911 C 17.32234764099121 0.7499983906745911 20.60673904418945 2.110438346862793 23.0770092010498 4.580708503723145 C 25.54727745056152 7.050978183746338 26.90771865844727 10.33536815643311 26.90771865844727 13.82885837554932 C 26.90771865844727 17.32234764099121 25.54727745056152 20.60673904418945 23.0770092010498 23.0770092010498 C 20.60673904418945 25.54727745056152 17.32234764099121 26.90771865844727 13.82885837554932 26.90771865844727 Z" stroke="none"/>
      <path d="M 13.82885837554932 1.499998092651367 C 10.53569793701172 1.499998092651367 7.439647674560547 2.782428741455078 5.111038208007812 5.111038208007812 C 2.782428741455078 7.439647674560547 1.499998092651367 10.53569793701172 1.499998092651367 13.82885837554932 C 1.499998092651367 17.12201881408691 2.782428741455078 20.21806907653809 5.111038208007812 22.54667854309082 C 7.439647674560547 24.87528800964355 10.53569793701172 26.15771865844727 13.82885837554932 26.15771865844727 C 17.12201881408691 26.15771865844727 20.21806907653809 24.87528800964355 22.54667854309082 22.54667854309082 C 24.87528800964355 20.21806907653809 26.15771865844727 17.12201881408691 26.15771865844727 13.82885837554932 C 26.15771865844727 10.53569793701172 24.87528800964355 7.439647674560547 22.54667854309082 5.111038208007812 C 20.21806907653809 2.782428741455078 17.12201881408691 1.499998092651367 13.82885837554932 1.499998092651367 M 13.82885837554932 -1.9073486328125e-06 C 21.46632766723633 -1.9073486328125e-06 27.65771865844727 6.191389083862305 27.65771865844727 13.82885837554932 C 27.65771865844727 21.46632766723633 21.46632766723633 27.65771865844727 13.82885837554932 27.65771865844727 C 6.191389083862305 27.65771865844727 -1.9073486328125e-06 21.46632766723633 -1.9073486328125e-06 13.82885837554932 C -1.9073486328125e-06 6.191389083862305 6.191389083862305 -1.9073486328125e-06 13.82885837554932 -1.9073486328125e-06 Z" stroke="none" fill="#00cfb4"/>
    </g>
    <line id="Line_174" data-name="Line 174" x2="11" transform="translate(148.5 845.5)" fill="none" stroke="#00cfb4" stroke-linecap="round" stroke-width="1.5"/>
  </g>
</svg>
