<svg id="Layer_1" data-name="Layer 1" xmlns="http://www.w3.org/2000/svg" viewBox="0 0 18.42 22.51"><defs><style>.cls-1{fill:#fff;}</style></defs><g id="private_area" data-name="private area"><path id="Ellipse_1" data-name="Ellipse 1" class="cls-1" d="M4.18,5a5,5,0,1,1,5,5h0a5,5,0,0,1-5-5Zm8,0a2.23,2.23,0,1,0,0,.06Z" transform="translate(0 -0.03)"/><path id="Path_2" data-name="Path 2" class="cls-1" d="M13.55,22.54H3.64A3.65,3.65,0,0,1,0,18.9V14.69a3.64,3.64,0,0,1,3.64-3.64H14.78a3.64,3.64,0,0,1,3.64,3.64h0v7.37h-2V14.69a1.6,1.6,0,0,0-1.6-1.6H3.64A1.61,1.61,0,0,0,2,14.65V18.9a1.62,1.62,0,0,0,1.6,1.6h9.91Z" transform="translate(0 -0.03)"/></g></svg>