<svg id="Layer_1" data-name="Layer 1" xmlns="http://www.w3.org/2000/svg" viewBox="0 0 18.42 22.54"><g id="private_area" data-name="private area"><path id="Ellipse_1" data-name="Ellipse 1" d="M4.18,5a5,5,0,1,1,5,5.05h0A5,5,0,0,1,4.18,5Zm8,0a3,3,0,1,0-3,3A3,3,0,0,0,12.21,5.06Z" transform="translate(0 -0.02)"/><path id="Path_2" data-name="Path 2" d="M13.55,22.56H3.64A3.65,3.65,0,0,1,0,18.92V14.71a3.64,3.64,0,0,1,3.64-3.64H14.78a3.64,3.64,0,0,1,3.64,3.64v7.37h-2V14.71a1.6,1.6,0,0,0-1.6-1.6H3.64A1.6,1.6,0,0,0,2,14.71v4.21a1.61,1.61,0,0,0,1.6,1.6h9.91Z" transform="translate(0 -0.02)"/></g></svg>