<svg id="Layer_1" data-name="Layer 1" xmlns="http://www.w3.org/2000/svg" viewBox="0 0 15.64 15.63"><defs><style>.cls-1{fill:#fff;fill-rule:evenodd;}</style></defs><path id="Forma_1" data-name="Forma 1" class="cls-1" d="M15.28,13.59l-3.22-3.23a6.38,6.38,0,0,0,1.16-3.75,6.61,6.61,0,0,0-4-6.09A6.64,6.64,0,0,0,4,.52,6.48,6.48,0,0,0,.51,4,6.67,6.67,0,0,0,0,6.61,6.49,6.49,0,0,0,.51,9.18,6.72,6.72,0,0,0,1.92,11.3,6.72,6.72,0,0,0,4,12.71a6.6,6.6,0,0,0,6.32-.65l3.22,3.22a1.2,1.2,0,0,0,1.69,0,1.18,1.18,0,0,0,.36-.85A1.15,1.15,0,0,0,15.28,13.59Zm-5.7-4a4.19,4.19,0,1,1,1.24-3,4.08,4.08,0,0,1-1.24,3Z" transform="translate(0.01)"/></svg>