<svg xmlns="http://www.w3.org/2000/svg" width="19.102" height="19.102" viewBox="0 0 19.102 19.102">
  <path id="Forma_1" data-name="Forma 1" d="M950.715,4827.936h0a9.545,9.545,0,0,0-7.731,15.149l-1.19,3.548,3.671-1.173a9.549,9.549,0,1,0,5.254-17.524Zm5.558,13.487a2.693,2.693,0,0,1-1.874,1.348c-.5.106-1.151.191-3.345-.718a11.968,11.968,0,0,1-4.755-4.2,5.457,5.457,0,0,1-1.134-2.881,3.048,3.048,0,0,1,.977-2.324,1.387,1.387,0,0,1,.977-.343c.118,0,.224.006.32.011.28.012.421.029.606.472.23.555.792,1.926.859,2.066a.569.569,0,0,1,.041.517,1.659,1.659,0,0,1-.309.438c-.141.162-.275.286-.416.461-.129.151-.275.313-.112.594a8.482,8.482,0,0,0,1.55,1.926,7.02,7.02,0,0,0,2.24,1.381.6.6,0,0,0,.673-.106,11.482,11.482,0,0,0,.746-.988.533.533,0,0,1,.685-.208c.258.089,1.622.764,1.9.9s.466.208.534.326A2.38,2.38,0,0,1,956.272,4841.423Z" transform="translate(-941.161 -4827.936)"/>
</svg>
