<svg xmlns="http://www.w3.org/2000/svg" width="1934" height="161.316" viewBox="0 0 1934 161.316">
  <g id="Group_484" data-name="Group 484" transform="translate(0 0)" opacity="0.1">
    <path id="Path_4" data-name="Path 4" d="M656.081-237.357H928.647a39.621,39.621,0,0,0,39.623-39.622h0v-20.089a40.419,40.419,0,0,0-40.364-40.386H699.828a5.239,5.239,0,0,1-5.2-5.239v-11.879a5.237,5.237,0,0,1,5.22-5.261H957.524a2.069,2.069,0,0,0,2.061-2.063v-34.258a2.394,2.394,0,0,0-2.392-2.392H688.77a39.576,39.576,0,0,0-39.58,39.579v21.409a39.029,39.029,0,0,0,38.963,38.984H917.489a5.317,5.317,0,0,1,5.3,5.321v11.735a5.371,5.371,0,0,1-5.343,5.343H656.081a2.069,2.069,0,0,0-2.063,2.063v34.795a2.068,2.068,0,0,0,2.063,2.063" transform="translate(965.73 398.545)"/>
    <path id="Rectangle_1" data-name="Rectangle 1" d="M590.856-398.543h41.415a2.069,2.069,0,0,1,2.063,2.064v157.125a2.068,2.068,0,0,1-2.063,2.063H590.752a1.971,1.971,0,0,1-1.959-1.959V-396.479A2.069,2.069,0,0,1,590.856-398.543Z" transform="translate(-219.617 398.588)"/>
    <path id="Path_5" data-name="Path 5" d="M839.069-237.395h41.25a2.07,2.07,0,0,0,2.062-2.063V-352.61a45.9,45.9,0,0,0-45.891-45.933H616.807a45.91,45.91,0,0,0-45.913,45.913v113.172a2.07,2.07,0,0,0,2.063,2.063h41.252a2.07,2.07,0,0,0,2.063-2.063V-277.45h171.4a2.069,2.069,0,0,0,2.063-2.063v-35.5a2.068,2.068,0,0,0-2.062-2.062h-171.4v-33.641a8.247,8.247,0,0,1,8.25-8.251H828.714a8.249,8.249,0,0,1,8.25,8.251h0v111.378a2.069,2.069,0,0,0,2.063,2.063" transform="translate(-570.894 398.588)"/>
    <path id="Path_6" data-name="Path 6" d="M881.145-237.395H922.4a2.07,2.07,0,0,0,2.062-2.063V-352.63a45.875,45.875,0,0,0-45.87-45.913H658.9a45.91,45.91,0,0,0-45.911,45.913v113.172a2.07,2.07,0,0,0,2.063,2.063h41.249a2.07,2.07,0,0,0,2.063-2.063V-277.45h171.42a2.067,2.067,0,0,0,2.06-2.063v-35.5a2.066,2.066,0,0,0-2.06-2.062H658.369v-33.641a8.249,8.249,0,0,1,8.251-8.251H870.814a8.254,8.254,0,0,1,8.146,8.251v111.378a2.068,2.068,0,0,0,2.063,2.063" transform="translate(255.346 398.588)"/>
    <path id="Path_7" data-name="Path 7" d="M770.177-237.357h41.25a2.068,2.068,0,0,0,2.061-2.062v-37.5h91.331a45.923,45.923,0,0,0,45.913-45.912v-73.613a2.069,2.069,0,0,0-2.063-2.062h-41.25a2.07,2.07,0,0,0-2.065,2.062v71.674a8.247,8.247,0,0,1-8.25,8.25H684.518a8.249,8.249,0,0,1-8.251-8.25h0v-71.716a2.067,2.067,0,0,0-2.061-2.062H632.953a2.066,2.066,0,0,0-2.061,2.062v74.995a44.5,44.5,0,0,0,44.488,44.53h92.732v37.5a2.07,2.07,0,0,0,2.064,2.062" transform="translate(606.602 398.545)"/>
    <path id="Path_8" data-name="Path 8" d="M644.207-398.544H602.958a2.069,2.069,0,0,0-2.064,2.062v78.233a2.069,2.069,0,0,0,2.064,2.063h41.249a2.068,2.068,0,0,0,2.063-2.063v-78.233a2.068,2.068,0,0,0-2.063-2.062" transform="translate(17.874 398.566)"/>
    <path id="Path_9" data-name="Path 9" d="M637.107-398.544H595.856a2.069,2.069,0,0,0-2.062,2.062V-283.33A45.924,45.924,0,0,0,639.686-237.4H886.347a45.923,45.923,0,0,0,45.911-45.912V-396.482a2.068,2.068,0,0,0-2.061-2.062H888.946a2.07,2.07,0,0,0-2.063,2.062v111.275a8.248,8.248,0,0,1-8.25,8.25H647.359a8.254,8.254,0,0,1-8.148-8.25V-396.482a2.068,2.068,0,0,0-2.062-2.062" transform="translate(-121.469 398.566)"/>
  </g>
</svg>
