<svg xmlns="http://www.w3.org/2000/svg" width="1691.05" height="655.96" viewBox="0 0 1691.05 655.96">
  <path id="Path_460" data-name="Path 460" d="M2702.44,6570.62v8.27c-.06,65.3-27.02,109.21-92.32,109.21H1487.86v-.04c-1.03,0-2.06,0-3.05.04a118.388,118.388,0,0,0-114.94,109.12c-.11,1.03-.15,2.09-.19,3.12-.11,2.02-.15,4.03-.15,6.05v302.02c0,1.94.04,3.88.15,5.78.04,1.06.08,2.13.19,3.16a118.351,118.351,0,0,0,117.98,109.23H2724.99c58.78,0,106.45-52.96,106.45-118.29V6805.35a118.27,118.27,0,0,1,118.24-118.25h110.9V6570.62Z" transform="translate(-1369.53 -6570.62)"/>
</svg>
