<svg xmlns="http://www.w3.org/2000/svg" width="730.487" height="789.478" viewBox="0 0 730.487 789.478">
  <path id="Path_465" data-name="Path 465" d="M1880.611,6440.62v93.523a50.413,50.413,0,0,1-50.411,50.364H1449.945v-.017c-.439,0-.878,0-1.3.017A50.44,50.44,0,0,0,1399.675,6631c-.047.439-.064.891-.081,1.33-.047.86-.064,1.717-.064,2.577V7179.75c0,.827.017,1.653.064,2.463.017.451.034.907.081,1.346a50.426,50.426,0,0,0,50.266,46.539h574.094c25.044,0,45.354-22.564,45.354-50.4V6670.629a50.391,50.391,0,0,1,50.377-50.382h10.25V6440.62Z" transform="translate(-1399.53 -6440.62)"/>
</svg>
