<svg id="Layer_1" data-name="Layer 1" xmlns="http://www.w3.org/2000/svg" viewBox="0 0 94.33 55.02"><g id="aiways_logo" data-name="aiways logo"><g id="Group_191" data-name="Group 191"><path id="Path_1" data-name="Path 1" d="M57.71,13.1H36.61A4.09,4.09,0,0,1,32.53,9V4.08A4.08,4.08,0,0,0,28.45,0H4.08A4.08,4.08,0,0,0,0,4.08H0V9a4.08,4.08,0,0,0,4.08,4.08H28.45a4.09,4.09,0,0,1,4.08,4.09h0v4.93a4.08,4.08,0,0,1-4.08,4.08H4.08A4.08,4.08,0,0,0,0,30.27H0V35.2a4.08,4.08,0,0,0,4.08,4.08H28.45a4.08,4.08,0,0,0,4.08-4.08h0V30.27a4.09,4.09,0,0,1,4.09-4.08h21.1a4.08,4.08,0,0,0,4.08-4.08h0V17.18a4.09,4.09,0,0,0-4.08-4.09" transform="translate(0 0)"/><path id="Path_2" data-name="Path 2" d="M90.24,0H65.88a4.09,4.09,0,0,0-4.09,4.08h0V9a4.09,4.09,0,0,0,4.09,4.09H90.24A4.09,4.09,0,0,0,94.33,9V4.08A4.09,4.09,0,0,0,90.24,0h0" transform="translate(0 0)"/><path id="Path_3" data-name="Path 3" d="M90.24,26.2H65.88a4.09,4.09,0,0,0-4.09,4.08v4.93a4.09,4.09,0,0,0,4.09,4.08H90.24a4.08,4.08,0,0,0,4.09-4.08V30.28a4.09,4.09,0,0,0-4.09-4.09h0" transform="translate(0 0)"/></g><g id="Group_169" data-name="Group 169"><path id="Path_4" data-name="Path 4" d="M79.09,55H92.38a1.93,1.93,0,0,0,1.93-1.93h0v-1a2,2,0,0,0-2-2H81.22a.25.25,0,0,1-.25-.25V49.3a.25.25,0,0,1,.25-.26H93.79a.1.1,0,0,0,.1-.1V47.27a.13.13,0,0,0-.12-.12H80.68a1.93,1.93,0,0,0-1.93,1.93h0v1.05a1.9,1.9,0,0,0,1.9,1.9H91.83a.25.25,0,0,1,.26.25v.58a.26.26,0,0,1-.26.26H79.09a.09.09,0,0,0-.1.1v1.7a.1.1,0,0,0,.1.1" transform="translate(0 0)"/><path id="Rectangle_1" data-name="Rectangle 1" d="M18.1,47.16h2a.09.09,0,0,1,.1.1v7.66a.1.1,0,0,1-.1.1h-2a.1.1,0,0,1-.1-.1V47.25a.09.09,0,0,1,.1-.09Z" transform="translate(0 0)"/><path id="Path_5" data-name="Path 5" d="M13.08,55h2a.1.1,0,0,0,.1-.1V49.4A2.24,2.24,0,0,0,13,47.16H2.24A2.24,2.24,0,0,0,0,49.4H0v5.52a.1.1,0,0,0,.1.1h2a.1.1,0,0,0,.1-.1V53.06h8.36a.09.09,0,0,0,.1-.1V51.23a.1.1,0,0,0-.1-.1H2.21V49.49a.4.4,0,0,1,.4-.4h10a.4.4,0,0,1,.4.4h0v5.43a.09.09,0,0,0,.1.1" transform="translate(0 0)"/><path id="Path_6" data-name="Path 6" d="M55.42,55h2a.09.09,0,0,0,.1-.1V49.4a2.23,2.23,0,0,0-2.23-2.24H44.58a2.24,2.24,0,0,0-2.24,2.24h0v5.52a.11.11,0,0,0,.1.1h2a.1.1,0,0,0,.1-.1V53.06h8.36A.09.09,0,0,0,53,53V51.23a.1.1,0,0,0-.1-.1H44.55V49.49a.4.4,0,0,1,.4-.4h10a.4.4,0,0,1,.4.4h0v5.43a.1.1,0,0,0,.1.1" transform="translate(0 0)"/><path id="Path_7" data-name="Path 7" d="M67.14,55h2a.09.09,0,0,0,.1-.1V53.08h4.46A2.24,2.24,0,0,0,76,50.85h0V47.26a.1.1,0,0,0-.1-.1h-2a.1.1,0,0,0-.1.1v3.5a.4.4,0,0,1-.4.4H63a.4.4,0,0,1-.4-.4h0v-3.5a.09.09,0,0,0-.1-.1h-2a.09.09,0,0,0-.1.1v3.65a2.17,2.17,0,0,0,2.17,2.17H67v1.83a.09.09,0,0,0,.1.1" transform="translate(0 0)"/><path id="Path_8" data-name="Path 8" d="M32.28,47.15h-2a.11.11,0,0,0-.1.1v3.82a.11.11,0,0,0,.1.1h2a.1.1,0,0,0,.1-.1V47.25a.1.1,0,0,0-.1-.1" transform="translate(0 0)"/><path id="Path_9" data-name="Path 9" d="M25.14,47.15h-2a.11.11,0,0,0-.1.1v5.52A2.24,2.24,0,0,0,25.27,55h12a2.24,2.24,0,0,0,2.24-2.24h0V47.25a.11.11,0,0,0-.1-.1h-2a.1.1,0,0,0-.09.1v5.43a.4.4,0,0,1-.41.4H25.64a.4.4,0,0,1-.4-.4h0V47.25a.1.1,0,0,0-.1-.1" transform="translate(0 0)"/></g></g></svg>