<svg xmlns="http://www.w3.org/2000/svg" viewBox="0 0 1920 1080"><defs><style>.cls-1{fill:#fff;}</style></defs><g id="Layer_2" data-name="Layer 2"><path class="cls-1" d="M0,0V1080H1920V0ZM1201,219.5a67.27,67.27,0,0,1,67.28-67.24h401.38v0a67.28,67.28,0,0,1,67.26,67.26v81.21A67.3,67.3,0,0,1,1669.65,368H1268.29A67.28,67.28,0,0,1,1201,300.68Zm-67.16,364.15H786.27A67.27,67.27,0,0,0,719,650.91v81.18a67.3,67.3,0,0,1-67.3,67.25H250.33a67.28,67.28,0,0,1-67.26-67.26V650.9a67.28,67.28,0,0,1,67.28-67.25H651.73A67.27,67.27,0,0,0,719,516.38V435.16a67.24,67.24,0,0,0-67.26-67.22H250.33a67.28,67.28,0,0,1-67.26-67.26V219.43a67.25,67.25,0,0,1,67.28-67.21h401.4a67.22,67.22,0,0,1,67.17,67.28v81.18a67.28,67.28,0,0,0,67.26,67.26h347.67a67.27,67.27,0,0,1,67.26,67.26v81.18A67.27,67.27,0,0,1,1133.85,583.65Zm603.08,148.64a67.24,67.24,0,0,1-67.28,67.21H1268.27A67.28,67.28,0,0,1,1201,732.24V651.06a67.27,67.27,0,0,1,67.28-67.27h401.38v-.07A67.28,67.28,0,0,1,1736.93,651Z"/></g></svg>