<?xml version="1.0" encoding="utf-8"?>
<!-- Generator: Adobe Illustrator 25.3.1, SVG Export Plug-In . SVG Version: 6.00 Build 0)  -->
<svg version="1.1" id="Layer_1" xmlns="http://www.w3.org/2000/svg" xmlns:xlink="http://www.w3.org/1999/xlink" x="0px" y="0px"
	 viewBox="0 0 1920 1080" style="enable-background:new 0 0 1920 1080;" xml:space="preserve">
<style type="text/css">
	.st0{fill:#FFFFFF;}
	.st1{fill:none;}
</style>
<g id="Layer_2_1_">
	<g id="Group_191">
		<path id="Path_1" class="st0" d="M1133.8,367.9H786.2c-37.1,0-67.2-30.1-67.3-67.3v-81.2c0-37.1-30-67.2-67.2-67.3c0,0,0,0,0,0
			H250.4c-37.1,0-67.3,30.1-67.3,67.2v81.3c0,37.1,30.1,67.2,67.3,67.3h401.4c37.1,0,67.3,30.1,67.3,67.2c0,0,0,0,0,0l0,0v81.2
			c0,37.1-30.1,67.3-67.3,67.3H250.4c-37.1,0-67.3,30.1-67.3,67.2l0,0v81.2c0,37.1,30.1,67.2,67.3,67.3h401.4
			c37.1,0,67.3-30.1,67.3-67.2l0,0v-81.2c0-37.1,30.1-67.3,67.3-67.3h347.6c37.1,0,67.3-30.1,67.3-67.3l0,0v-81.2
			C1201.1,398.1,1171,367.9,1133.8,367.9"/>
		<path id="Path_2" class="st0" d="M1669.7,152.3h-401.4c-37.1,0-67.3,30.1-67.3,67.2l0,0v81.2c0,37.2,30.1,67.3,67.2,67.3
			c0,0,0,0,0.1,0h401.4c37.1,0,67.3-30.1,67.3-67.2v-81.3C1736.9,182.4,1706.8,152.3,1669.7,152.3L1669.7,152.3"/>
		<path id="Path_3" class="st0" d="M1669.7,583.8h-401.4c-37.2,0-67.3,30.1-67.3,67.2c0,0,0,0,0,0v81.2c0,37.1,30.1,67.2,67.3,67.3
			h401.4c37.1,0,67.3-30.1,67.3-67.2c0,0,0,0,0,0V651C1736.9,613.9,1706.8,583.7,1669.7,583.8L1669.7,583.8"/>
	</g>
</g>
<rect class="st1" width="1920" height="1080"/>
</svg>
